<svg width="234" height="28" viewBox="0 0 234 28" fill="none" xmlns="http://www.w3.org/2000/svg">
<path fill-rule="evenodd" clip-rule="evenodd" d="M125.99 3.7086C125.99 1.89302 124.512 0.421661 122.703 0.421661C120.888 0.421661 119.416 1.89977 119.416 3.7086C119.416 5.51742 120.894 6.99553 122.703 6.99553C124.512 7.00228 125.99 5.52417 125.99 3.7086ZM119.868 3.7086C119.868 2.1495 121.137 0.880617 122.696 0.880617C124.256 0.880617 125.524 2.1495 125.524 3.7086C125.524 5.2677 124.256 6.53657 122.696 6.53657C121.137 6.53657 119.868 5.27444 119.868 3.7086ZM94.4639 10.8022C94.4639 6.07087 96.8329 3.70859 101.557 3.70859H116.858H117.398V4.24854V8.62212V9.16207H116.858H101.564C100.984 9.16207 100.565 9.29031 100.309 9.54678C100.046 9.80326 99.9174 10.2217 99.9174 10.8022V19.5493C99.9174 20.1298 100.046 20.5482 100.302 20.8047C100.559 21.0612 100.977 21.1894 101.557 21.1894H111.945V21.1759H117.391V26.0962V26.6361H116.851H101.557C96.8262 26.6361 94.4639 24.2671 94.4639 19.5426V10.8022ZM141.487 23.2547V6.25985H138.929V22.789C138.929 26.1029 139.975 26.6294 143.12 26.6294C144.254 26.6294 144.747 26.5686 144.747 26.5686V24.4156H142.999C141.723 24.4223 141.487 24.2469 141.487 23.2547ZM130.667 11.7606H125.835C122.899 11.7606 121.644 12.4018 121.644 15.6009V22.789C121.644 25.9882 122.892 26.6294 125.835 26.6294H130.667C133.603 26.6294 134.913 25.9882 134.913 22.789V15.6009C134.913 12.4018 133.603 11.7606 130.667 11.7606ZM132.355 23.2547C132.355 24.2469 132.119 24.4223 130.843 24.4223H125.781C124.472 24.4223 124.208 24.2469 124.208 23.2547V15.0812C124.208 14.0891 124.472 13.8596 125.781 13.8596H130.843C132.125 13.8596 132.355 14.0958 132.355 15.0812V23.2547ZM149.95 6.25985V23.2547C149.95 24.2469 150.187 24.4223 151.456 24.4156H153.204V26.5686C153.204 26.5686 152.711 26.6294 151.577 26.6294C148.432 26.6294 147.386 26.1029 147.386 22.789V6.25985H149.95ZM164.327 11.8213H159.872C156.848 11.8213 155.627 12.4895 155.627 15.6347V22.5595C155.627 25.7587 156.848 26.6362 159.906 26.6362H164.677C166.831 26.6362 167.991 26.5484 167.991 26.5484V24.4224H159.669C158.36 24.4494 158.131 24.2469 158.131 23.2547V20.1973H168.342V15.7157C168.342 12.5773 167.35 11.8213 164.327 11.8213ZM165.832 18.2265H158.124V15.0813C158.124 14.1229 158.353 13.9204 159.663 13.9204H164.259C165.541 13.9204 165.832 14.1229 165.832 15.0813V18.2265ZM172.122 15.8102C172.122 12.611 173.377 11.882 176.313 11.882H180.619C182.246 11.882 183.555 11.9698 183.555 11.9698V13.9743H176.226C174.916 13.9743 174.68 14.2038 174.68 15.196V23.2615C174.68 24.2469 174.943 24.4223 176.253 24.4223H183.555V26.5484C183.555 26.5484 182.536 26.6361 180.619 26.6361H176.313C173.371 26.6361 172.122 25.9072 172.122 22.708V15.8102ZM190.251 23.2547V13.9744H194.152V11.963H190.251V8.00793H187.693V11.963H185.452V13.9744H187.693V22.7958C187.693 25.9949 188.8 26.6361 191.823 26.6361C193.16 26.6361 194.442 26.5484 194.442 26.5484V24.4223H191.823C190.541 24.4223 190.251 24.2469 190.251 23.2547ZM197.466 12.0508H200.024V26.6294H197.466V12.0508ZM200.166 6.34759H197.317V9.11483H200.166V6.34759ZM208.258 11.7606H213.091C216.027 11.7606 217.336 12.4018 217.336 15.6009V22.789C217.336 25.9882 216.027 26.6294 213.091 26.6294H208.258C205.315 26.6294 204.067 25.9882 204.067 22.789V15.6009C204.067 12.4018 205.322 11.7606 208.258 11.7606ZM213.266 24.4223C214.542 24.4223 214.778 24.2469 214.778 23.2547V15.0812C214.778 14.0958 214.548 13.8596 213.266 13.8596H208.204C206.895 13.8596 206.631 14.0891 206.631 15.0812V23.2547C206.631 24.2469 206.895 24.4223 208.204 24.4223H213.266ZM229.788 11.9631H224.753C222.249 11.9631 221.318 12.0508 221.318 12.0508V26.6294H223.876V14.0621H229.93C231.212 14.0621 231.442 14.2916 231.442 15.2837V26.6361H234V15.8372C234.007 12.638 232.731 11.9631 229.788 11.9631ZM23.2312 9.43879H23.4472H26.7476H27.1526V9.84375V26.3392V26.7441H26.7476H23.4472H23.0423V26.3392V17.3895L17.1906 26.5551L16.8531 27.0883L16.5089 26.5551L10.6572 17.3895V26.3392V26.7441H10.2522H6.9518H6.54684V26.3392V9.84375V9.43879H6.9518H10.2522H10.475L10.5964 9.62777L16.8531 19.4278L23.1097 9.62777L23.2312 9.43879ZM0.404961 9.43879H0V9.84375V26.3392V26.7441H0.404961H3.70539H4.11035V26.3392V9.84375V9.43879H3.70539H0.404961ZM29.6769 14.791C29.6769 11.2206 31.4587 9.43879 35.0291 9.43879H46.5705H46.9755V9.84375V13.1442V13.5491H46.5705H35.0359C34.5972 13.5491 34.2799 13.6436 34.0842 13.8394C33.8885 14.0351 33.7872 14.3523 33.7872 14.791V21.3919C33.7872 21.8306 33.8817 22.1478 34.0775 22.3435C34.2732 22.5325 34.5904 22.6338 35.0291 22.6338H42.8651V22.627V16.2624V16.0127H43.2701H46.5705H46.9755V16.2624V22.627V26.3392V26.4944V26.7441H46.5705H43.2768H42.8719H35.0291C31.4587 26.7441 29.6769 24.9623 29.6769 21.3919V14.791ZM81.9843 22.6338H74.1416C73.7029 22.6338 73.3857 22.5325 73.1899 22.3435C72.9942 22.1478 72.8997 21.8306 72.8997 21.3919V14.791C72.8997 14.3523 73.0009 14.0351 73.1899 13.8394C73.3857 13.6436 73.7029 13.5491 74.1416 13.5491H85.6897H86.0947V13.1442V9.84375V9.43879H85.6897H74.1416C70.5712 9.43879 68.7893 11.2206 68.7893 14.791V21.3919C68.7893 24.9623 70.5712 26.7441 74.1416 26.7441H85.6897H86.0947V26.3392V22.627H81.9843V22.6338ZM54.7237 9.43879C51.1533 9.43879 49.3714 11.2206 49.3714 14.791V21.3919C49.3714 24.9623 51.1533 26.7441 54.7237 26.7441H66.2718H66.6768V26.3392V16.4446V16.0397H66.2718H59.671H59.266V16.4446V19.745V20.15H59.671H62.5664V22.6338H54.7237C54.285 22.6338 53.9677 22.5325 53.772 22.3435C53.5763 22.1478 53.4818 21.8306 53.4818 21.3919V14.791C53.4818 14.3523 53.583 14.0351 53.772 13.8394C53.9677 13.6436 54.285 13.5491 54.7237 13.5491H66.2718H66.6768V13.1442V9.84375V9.43879H66.2718H54.7237ZM79.2576 16.0397H79.4196H85.9327H86.0947V16.4446V19.7383V20.15H85.9327H79.4196H79.2576V19.7383V16.4446V16.0397ZM124.451 4.43752C124.343 4.86948 124.141 5.19345 123.857 5.42293C123.567 5.64566 123.223 5.7604 122.811 5.7604C122.386 5.7604 122.042 5.67265 121.772 5.49717C121.502 5.32169 121.299 5.07196 121.158 4.74124C121.016 4.41053 120.948 4.05956 120.948 3.6816C120.948 3.26989 121.029 2.91217 121.185 2.6017C121.347 2.29123 121.569 2.06175 121.86 1.89977C122.15 1.74453 122.467 1.66354 122.818 1.66354C123.216 1.66354 123.547 1.76478 123.817 1.96726C124.087 2.16974 124.276 2.45321 124.384 2.81768L123.864 2.93917C123.776 2.65569 123.641 2.44646 123.466 2.31148C123.29 2.18324 123.068 2.11575 122.804 2.11575C122.501 2.11575 122.244 2.18324 122.042 2.33173C121.839 2.48021 121.691 2.67594 121.61 2.91892C121.529 3.16865 121.488 3.41837 121.488 3.6816C121.488 4.01906 121.536 4.30929 121.63 4.55901C121.731 4.81549 121.88 5.00447 122.089 5.12596C122.298 5.25419 122.521 5.31494 122.764 5.31494C123.061 5.31494 123.311 5.2272 123.513 5.05846C123.716 4.88973 123.851 4.63325 123.925 4.30254L124.451 4.43752Z" fill="#A42036"/>
</svg>
