<svg width="414" height="48" viewBox="0 0 414 48" fill="none" xmlns="http://www.w3.org/2000/svg">
<path fill-rule="evenodd" clip-rule="evenodd" d="M222.906 5.81535C222.906 2.60317 220.291 0 217.09 0C213.878 0 211.275 2.61512 211.275 5.81535C211.275 9.01558 213.89 11.6307 217.09 11.6307C220.291 11.6426 222.906 9.02752 222.906 5.81535ZM212.075 5.81535C212.075 3.05694 214.32 0.811999 217.078 0.811999C219.837 0.811999 222.082 3.05694 222.082 5.81535C222.082 8.57376 219.837 10.8187 217.078 10.8187C214.32 10.8187 212.075 8.5857 212.075 5.81535ZM167.129 18.366C167.129 9.99528 171.32 5.81588 179.679 5.81588H206.749H207.705V6.77117V14.509V15.4643H206.749H179.691C178.664 15.4643 177.923 15.6912 177.47 16.145C177.004 16.5987 176.777 17.3391 176.777 18.366V33.8418C176.777 34.8687 177.004 35.6091 177.458 36.0629C177.911 36.5166 178.652 36.7435 179.679 36.7435H198.056V36.7196H207.693V45.4247V46.38H206.737H179.679C171.308 46.38 167.129 42.1887 167.129 33.8299V18.366ZM250.323 40.397V10.3292H245.797V39.5731C245.797 45.4362 247.648 46.3676 253.213 46.3676C255.219 46.3676 256.09 46.2601 256.09 46.2601V42.4509H252.998C250.741 42.4628 250.323 42.1524 250.323 40.397ZM231.181 20.0607H222.631C217.437 20.0607 215.216 21.1951 215.216 26.8552V39.5726C215.216 45.2327 217.425 46.3671 222.631 46.3671H231.181C236.375 46.3671 238.692 45.2327 238.692 39.5726V26.8552C238.692 21.1951 236.375 20.0607 231.181 20.0607ZM234.166 40.3965C234.166 42.1519 233.748 42.4623 231.491 42.4623H222.536C220.219 42.4623 219.753 42.1519 219.753 40.3965V25.9358C219.753 24.1804 220.219 23.7744 222.536 23.7744H231.491C233.76 23.7744 234.166 24.1924 234.166 25.9358V40.3965ZM265.297 10.3292V40.397C265.297 42.1524 265.715 42.4628 267.96 42.4509H271.053V46.2601C271.053 46.2601 270.181 46.3676 268.175 46.3676C262.61 46.3676 260.759 45.4362 260.759 39.5731V10.3292H265.297ZM290.732 20.1694H282.851C277.501 20.1694 275.34 21.3515 275.34 26.9161V39.1678C275.34 44.8279 277.501 46.3802 282.91 46.3802H291.353C295.162 46.3802 297.216 46.225 297.216 46.225V42.4635H282.492C280.176 42.5113 279.77 42.1531 279.77 40.3977V34.9884H297.837V27.0594C297.837 21.5068 296.081 20.1694 290.732 20.1694ZM293.395 31.5015H279.758V25.9369C279.758 24.2413 280.164 23.8831 282.48 23.8831H290.612C292.881 23.8831 293.395 24.2413 293.395 25.9369V31.5015ZM304.524 27.2259C304.524 21.5658 306.745 20.2761 311.939 20.2761H319.557C322.435 20.2761 324.752 20.4314 324.752 20.4314V23.9779H311.784C309.467 23.9779 309.049 24.3839 309.049 26.1392V40.4089C309.049 42.1523 309.515 42.4628 311.832 42.4628H324.752V46.2243C324.752 46.2243 322.949 46.3795 319.557 46.3795H311.939C306.733 46.3795 304.524 45.0899 304.524 39.4298V27.2259ZM336.598 40.3978V23.9787H343.5V20.4202H336.598V13.4227H332.072V20.4202H328.108V23.9787H332.072V39.5858C332.072 45.2459 334.03 46.3803 339.38 46.3803C341.744 46.3803 344.013 46.225 344.013 46.225V42.4636H339.38C337.111 42.4636 336.598 42.1531 336.598 40.3978ZM349.363 20.5743H353.888V46.3672H349.363V20.5743ZM354.139 10.4839H349.1V15.3798H354.139V10.4839ZM368.457 20.0607H377.006C382.201 20.0607 384.517 21.1951 384.517 26.8552V39.5726C384.517 45.2327 382.201 46.3671 377.006 46.3671H368.457C363.25 46.3671 361.041 45.2327 361.041 39.5726V26.8552C361.041 21.1951 363.262 20.0607 368.457 20.0607ZM377.317 42.4623C379.574 42.4623 379.992 42.1519 379.992 40.3965V25.9358C379.992 24.1924 379.586 23.7744 377.317 23.7744H368.361C366.044 23.7744 365.579 24.1804 365.579 25.9358V40.3965C365.579 42.1519 366.044 42.4623 368.361 42.4623H377.317ZM406.549 20.4195H397.641C393.21 20.4195 391.563 20.5748 391.563 20.5748V46.3677H396.088V24.1332H406.799C409.068 24.1332 409.474 24.5392 409.474 26.2946V46.3796H414V27.2738C414.012 21.6136 411.755 20.4195 406.549 20.4195ZM41.1014 15.9533H41.4835H47.3227H48.0392V16.6698V45.854V46.5705H47.3227H41.4835H40.767V45.854V30.02L30.414 46.2361L29.817 47.1795L29.208 46.2361L18.855 30.02V45.854V46.5705H18.1385H12.2993H11.5828V45.854V16.6698V15.9533H12.2993H18.1385H18.5326L18.7475 16.2877L29.817 33.6262L40.8864 16.2877L41.1014 15.9533ZM0.71647 15.9533H0V16.6698V45.854V46.5705H0.71647H6.5557H7.27217V45.854V16.6698V15.9533H6.5557H0.71647ZM52.5052 25.4227C52.5052 19.1058 55.6577 15.9533 61.9746 15.9533H82.394H83.1104V16.6698V22.509V23.2255H82.394H61.9865C61.2103 23.2255 60.6491 23.3927 60.3028 23.7389C59.9565 24.0852 59.7774 24.6465 59.7774 25.4227V37.1011C59.7774 37.8773 59.9446 38.4385 60.2909 38.7848C60.6372 39.1192 61.1984 39.2983 61.9746 39.2983H75.8383V39.2863V28.0258V27.584H76.5547H82.394H83.1104V28.0258V39.2863V45.854V46.1286V46.5705H82.394H76.5667H75.8502H61.9746C55.6577 46.5705 52.5052 43.418 52.5052 37.1011V25.4227ZM145.049 39.2983H131.174C130.397 39.2983 129.836 39.1192 129.49 38.7848C129.144 38.4385 128.976 37.8773 128.976 37.1011V25.4227C128.976 24.6465 129.156 24.0852 129.49 23.7389C129.836 23.3927 130.397 23.2255 131.174 23.2255H151.605H152.321V22.509V16.6698V15.9533H151.605H131.174C124.857 15.9533 121.704 19.1058 121.704 25.4227V37.1011C121.704 43.418 124.857 46.5705 131.174 46.5705H151.605H152.321V45.854V39.2863H145.049V39.2983ZM96.8189 15.9533C90.502 15.9533 87.3495 19.1058 87.3495 25.4227V37.1011C87.3495 43.418 90.502 46.5705 96.8189 46.5705H117.25H117.967V45.854V28.3482V27.6318H117.25H105.572H104.855V28.3482V34.1875V34.9039H105.572H110.695V39.2983H96.8189C96.0427 39.2983 95.4815 39.1192 95.1352 38.7848C94.7889 38.4385 94.6217 37.8773 94.6217 37.1011V25.4227C94.6217 24.6465 94.8008 24.0852 95.1352 23.7389C95.4815 23.3927 96.0427 23.2255 96.8189 23.2255H117.25H117.967V22.509V16.6698V15.9533H117.25H96.8189ZM140.225 27.6324H140.512H152.035H152.321V28.3489V34.1762V34.9046H152.035H140.512H140.225V34.1762V28.3489V27.6324ZM220.183 7.1046C219.992 7.86884 219.634 8.44201 219.132 8.84801C218.619 9.24207 218.01 9.44507 217.281 9.44507C216.529 9.44507 215.92 9.28984 215.443 8.97937C214.965 8.6689 214.607 8.22707 214.356 7.64196C214.105 7.05684 213.986 6.4359 213.986 5.76719C213.986 5.03878 214.129 4.4059 214.404 3.85661C214.69 3.30731 215.084 2.90131 215.598 2.61473C216.111 2.34008 216.672 2.19679 217.293 2.19679C217.998 2.19679 218.583 2.3759 219.061 2.73414C219.538 3.09237 219.873 3.5939 220.064 4.23872L219.144 4.45367C218.989 3.95214 218.75 3.58196 218.44 3.34314C218.129 3.11626 217.735 2.99684 217.27 2.99684C216.732 2.99684 216.278 3.11626 215.92 3.37896C215.562 3.64167 215.299 3.98796 215.156 4.41784C215.013 4.85967 214.941 5.30149 214.941 5.76719C214.941 6.36425 215.025 6.87772 215.192 7.31955C215.371 7.77331 215.634 8.10766 216.004 8.3226C216.374 8.54949 216.768 8.65696 217.198 8.65696C217.723 8.65696 218.165 8.50172 218.523 8.20319C218.882 7.90466 219.12 7.4509 219.252 6.86578L220.183 7.1046Z" fill="white"/>
</svg>
